<svg viewBox="0 0 200 200" xmlns="http://www.w3.org/2000/svg">
  <!-- Background gradient circle -->
  <defs>
    <linearGradient id="bgGradient" x1="0%" y1="0%" x2="100%" y2="100%">
      <stop offset="0%" style="stop-color:#667eea;stop-opacity:1" />
      <stop offset="100%" style="stop-color:#764ba2;stop-opacity:1" />
    </linearGradient>
    <linearGradient id="shieldGradient" x1="0%" y1="0%" x2="100%" y2="100%">
      <stop offset="0%" style="stop-color:#ffffff;stop-opacity:0.95" />
      <stop offset="100%" style="stop-color:#f0f0f0;stop-opacity:0.95" />
    </linearGradient>
  </defs>

  <!-- Rounded square background -->
  <rect x="10" y="10" width="180" height="180" rx="40" fill="url(#bgGradient)"/>

  <!-- Shield icon (main element) -->
  <g transform="translate(100, 100)">
    <!-- Outer shield -->
    <path d="M 0,-60 L -50,-40 L -50,0 C -50,33 -27,60 0,72 C 27,60 50,33 50,0 L 50,-40 Z"
          fill="url(#shieldGradient)"
          stroke="#667eea"
          stroke-width="3"/>

    <!-- Inner shield detail -->
    <path d="M 0,-50 L -40,-33 L -40,0 C -40,26 -22,48 0,58 C 22,48 40,26 40,0 L 40,-33 Z"
          fill="none"
          stroke="#667eea"
          stroke-width="2"
          opacity="0.6"/>

    <!-- Center circle (VPN node) -->
    <circle cx="0" cy="5" r="15" fill="#667eea"/>
    <circle cx="0" cy="5" r="12" fill="white"/>
    <circle cx="0" cy="5" r="8" fill="#764ba2"/>

    <!-- Connection nodes (3 small circles around) -->
    <circle cx="-20" cy="-10" r="5" fill="#667eea" opacity="0.8"/>
    <circle cx="20" cy="-10" r="5" fill="#667eea" opacity="0.8"/>
    <circle cx="0" cy="25" r="5" fill="#667eea" opacity="0.8"/>

    <!-- Connection lines -->
    <line x1="-20" y1="-10" x2="-8" y2="2" stroke="#667eea" stroke-width="2" opacity="0.5"/>
    <line x1="20" y1="-10" x2="8" y2="2" stroke="#667eea" stroke-width="2" opacity="0.5"/>
    <line x1="0" y1="25" x2="0" y2="13" stroke="#667eea" stroke-width="2" opacity="0.5"/>
  </g>

  <!-- Decorative corner accents -->
  <circle cx="35" cy="35" r="3" fill="white" opacity="0.3"/>
  <circle cx="165" cy="35" r="3" fill="white" opacity="0.3"/>
  <circle cx="35" cy="165" r="3" fill="white" opacity="0.3"/>
  <circle cx="165" cy="165" r="3" fill="white" opacity="0.3"/>
</svg>